# xmcd
#
# Track frame offsets:
# 150
# 14120
# 28725
# 39880
# 52780
# 65442
# 79337
# 93352
# 105970
# 116757
# 130120
# 143345
# 155487
# 168102
# 179875
# 192257
# 203427
# 215160
# 228787
# 242050
# 255100
# 266670
# 279002
# 289615
# 302555
# 313905
#
# Disc length: 4362 seconds
#
#
# Revision: 0
# Processed by: cddbd v1.5PL3 Copyright (c) Steve Scherf et al.
# Submitted via: FreeRIP 2.70 
#
DISCID=5c11081a
DTITLE=Various Artist - The Best of Jump Jive
DYEAR=1999
DGENRE=JUMP JIVE
TTITLE0=Louis Jordan and his Tympani Five - Texas and Pacific [1947]
TTITLE1=Big Joe Turner with Wild Bill Moore's Lucky Seven Band - My gal's a jockey [1946]
TTITLE2=Joe Lutcher and his Society Cats - Rockin' boogie [1947]
TTITLE3=Amos Milburn and his Chickenshackers - Chicken shack boogie [1947]
TTITLE4=Eddie 'Cleanhead' Vinson and his Orchestra - Old maid boogie [1947]
TTITLE5=Bull Moose Jackson and his Buffalo Bearcats - I want a bow legged woman [1947]
TTITLE6=Joe Liggins and his Honeydrippers - The honeydripper [1945]
TTITLE7=Wynonie Harris All Stars - I feel that old age coming on [1948]
TTITLE8=Jimmy Witherspoon with the Al Wichard Sextette - Geneva blues [1948]
TTITLE9=Roy Brown with Bob Ogden and his Orchestra - Good rockin' tonight [1947]
TTITLE10=Bob Merrill with Cootie Williams and his Orchestra - Let 'em roll [1948]
TTITLE11=Todd Rhodes and his Orchestra - Pot likker
TTITLE12=Louis Jordan and his Tympani Five - Boogie woogie blue plate [1947]
TTITLE13=Roy Milton and his Solid Senders - Hop, skip and jump [1948]
TTITLE14=T-Bone Walker and his Guitar - Inspiration blues [1947]
TTITLE15=Earl Bostic - 8.45 stomp [1946]
TTITLE16=Wynonie Harris with Johnnie Alston and his All Star Crew - Playful baby [1945]
TTITLE17=Eddie 'Cleanhead' Vinson and his Orchestra - Kidney stew blues [1947]
TTITLE18=Jesse Stone and his Orchestra - Mister jelly fingers [1947]
TTITLE19=Julia Lee and her Boy Friend - (Opportunity knocks but once) snatch and grab it [1947]
TTITLE20=Gene Phillips and his Rhythm Aces - Rock bottom [1947]
TTITLE21=Arnett Cobb and his Orchestra - Cobb's boogie [1947]
TTITLE22=Roy Milton and his Solid Senders - Keep a dollar in your pocket [1947]
TTITLE23=The Trenier Twins with Gene Gilbeaux's Orchestra - Buzz, buzz, buzz [1947]
TTITLE24=Fluffy Hunter with the Buddy Banks Sextet - Fluffy's debut [1947]
TTITLE25=Hal Singer Sextet - Corn bread [1948]
EXTD=Late 1940's jump jive music which re-named became white men's rock and roll
EXTT0=
EXTT1=
EXTT2=
EXTT3=
EXTT4=
EXTT5=
EXTT6=
EXTT7=
EXTT8=
EXTT9=
EXTT10=
EXTT11=
EXTT12=
EXTT13=
EXTT14=
EXTT15=
EXTT16=
EXTT17=
EXTT18=
EXTT19=
EXTT20=
EXTT21=
EXTT22=
EXTT23=
EXTT24=
EXTT25=
PLAYORDER=
